<svg xmlns="http://www.w3.org/2000/svg" xmlns:xlink="http://www.w3.org/1999/xlink" width="500" zoomAndPan="magnify" viewBox="0 0 375 374.999991" height="500" preserveAspectRatio="xMidYMid meet" version="1.0"><defs><g/><clipPath id="id1"><path d="M 89.421875 143 L 260 143 L 260 185.722656 L 89.421875 185.722656 Z M 89.421875 143 " clip-rule="nonzero"/></clipPath><clipPath id="id2"><path d="M 129 153 L 319.402344 153 L 319.402344 178 L 129 178 Z M 129 153 " clip-rule="nonzero"/></clipPath></defs><g fill="rgb(100%, 100%, 100%)" fill-opacity="1"><g transform="translate(113.054696, 214.350075)"><g><path d="M 0.101562 0 L 1.878906 0 L 3.71875 -3.378906 L 13.398438 -3.378906 L 15.257812 0 L 17.015625 0 L 9.558594 -14.097656 L 7.597656 -14.097656 Z M 4.457031 -4.859375 L 8.558594 -12.636719 L 8.597656 -12.636719 L 12.675781 -4.859375 Z M 4.457031 -4.859375 "/></g></g></g><g fill="rgb(100%, 100%, 100%)" fill-opacity="1"><g transform="translate(130.667956, 214.350075)"><g><path d="M 8.519531 0.5 C 13.097656 0.5 16.234375 -1.980469 16.234375 -6.417969 L 16.234375 -14.097656 L 14.578125 -14.097656 L 14.578125 -6.398438 C 14.578125 -2.820312 12.136719 -1.019531 8.539062 -1.019531 C 4.9375 -1.019531 2.480469 -2.820312 2.480469 -6.398438 L 2.480469 -14.097656 L 0.800781 -14.097656 L 0.800781 -6.417969 C 0.800781 -1.980469 3.9375 0.5 8.519531 0.5 Z M 8.519531 0.5 "/></g></g></g><g fill="rgb(100%, 100%, 100%)" fill-opacity="1"><g transform="translate(148.201245, 214.350075)"><g><path d="M 6.816406 0 L 8.476562 0 L 8.476562 -12.617188 L 15.195312 -12.617188 L 15.195312 -14.097656 L 0.101562 -14.097656 L 0.101562 -12.617188 L 6.816406 -12.617188 Z M 6.816406 0 "/></g></g></g><g fill="rgb(100%, 100%, 100%)" fill-opacity="1"><g transform="translate(163.995218, 214.350075)"><g><path d="M 10.378906 0.5 C 16.054688 0.5 19.976562 -2.597656 19.976562 -7.039062 C 19.976562 -11.476562 16.054688 -14.597656 10.378906 -14.597656 C 4.71875 -14.597656 0.800781 -11.476562 0.800781 -7.039062 C 0.800781 -2.597656 4.71875 0.5 10.378906 0.5 Z M 10.378906 -0.960938 C 5.71875 -0.960938 2.460938 -3.460938 2.460938 -7.039062 C 2.460938 -10.617188 5.71875 -13.117188 10.378906 -13.117188 C 15.035156 -13.117188 18.296875 -10.617188 18.296875 -7.039062 C 18.296875 -3.460938 15.035156 -0.960938 10.378906 -0.960938 Z M 10.378906 -0.960938 "/></g></g></g><g fill="rgb(100%, 100%, 100%)" fill-opacity="1"><g transform="translate(185.267025, 214.350075)"><g/></g></g><g fill="rgb(100%, 100%, 100%)" fill-opacity="1"><g transform="translate(192.024554, 214.350075)"><g><path d="M 1 0 L 11.878906 0 L 11.878906 -1.460938 L 2.660156 -1.460938 L 2.660156 -14.097656 L 1 -14.097656 Z M 1 0 "/></g></g></g><g fill="rgb(100%, 100%, 100%)" fill-opacity="1"><g transform="translate(204.499838, 214.350075)"><g><path d="M 1 0 L 2.660156 0 L 2.660156 -14.097656 L 1 -14.097656 Z M 1 0 "/></g></g></g><g fill="rgb(100%, 100%, 100%)" fill-opacity="1"><g transform="translate(208.658403, 214.350075)"><g><path d="M 1 0 L 2.660156 0 L 2.660156 -12.398438 L 2.679688 -12.398438 L 13.9375 0 L 16.15625 0 L 16.15625 -14.097656 L 14.476562 -14.097656 L 14.476562 -1.679688 L 14.457031 -1.679688 L 3.21875 -14.097656 L 1 -14.097656 Z M 1 0 "/></g></g></g><g fill="rgb(100%, 100%, 100%)" fill-opacity="1"><g transform="translate(226.311635, 214.350075)"><g><path d="M 1 0 L 9.316406 0 C 14.597656 0 17.515625 -2.519531 17.515625 -7.039062 C 17.515625 -11.578125 14.597656 -14.097656 9.316406 -14.097656 L 1 -14.097656 Z M 2.660156 -1.460938 L 2.660156 -12.617188 L 9.316406 -12.617188 C 13.515625 -12.617188 15.855469 -10.636719 15.855469 -7.039062 C 15.855469 -3.460938 13.515625 -1.460938 9.316406 -1.460938 Z M 2.660156 -1.460938 "/></g></g></g><g fill="rgb(100%, 100%, 100%)" fill-opacity="1"><g transform="translate(245.124416, 214.350075)"><g><path d="M 1 0 L 2.660156 0 L 2.660156 -14.097656 L 1 -14.097656 Z M 1 0 "/></g></g></g><g clip-path="url(#id1)"><path fill="rgb(97.24884%, 97.24884%, 97.24884%)" d="M 97.089844 179.484375 C 99.746094 177.910156 102.65625 176.8125 105.664062 176.132812 C 106.039062 176.042969 106.417969 175.972656 106.792969 175.894531 C 106.984375 175.855469 107.175781 175.828125 107.363281 175.792969 C 107.554688 175.757812 107.746094 175.726562 107.9375 175.703125 C 108.699219 175.574219 109.46875 175.5 110.242188 175.421875 C 111.785156 175.292969 113.34375 175.253906 114.902344 175.320312 C 115.292969 175.332031 115.679688 175.359375 116.070312 175.382812 C 116.460938 175.414062 116.851562 175.445312 117.242188 175.488281 C 118.023438 175.570312 118.804688 175.671875 119.582031 175.808594 C 120.359375 175.941406 121.140625 176.097656 121.917969 176.28125 C 122.695312 176.46875 123.472656 176.671875 124.253906 176.894531 C 122.902344 175.996094 121.417969 175.28125 119.875 174.722656 C 119.488281 174.582031 119.09375 174.460938 118.703125 174.335938 C 118.304688 174.21875 117.910156 174.105469 117.507812 174.007812 C 116.707031 173.804688 115.894531 173.648438 115.074219 173.527344 C 114.664062 173.464844 114.253906 173.417969 113.839844 173.371094 C 113.632812 173.351562 113.425781 173.339844 113.222656 173.320312 C 113.015625 173.300781 112.808594 173.289062 112.597656 173.28125 C 111.769531 173.226562 110.9375 173.238281 110.105469 173.257812 C 109.691406 173.277344 109.273438 173.292969 108.859375 173.335938 L 108.238281 173.394531 L 107.613281 173.464844 C 107.40625 173.488281 107.203125 173.523438 106.996094 173.558594 C 106.789062 173.589844 106.582031 173.621094 106.378906 173.65625 C 105.96875 173.738281 105.554688 173.808594 105.148438 173.90625 C 101.894531 174.640625 98.753906 176.003906 96.078125 177.996094 C 94.746094 179 93.523438 180.148438 92.503906 181.445312 C 92.246094 181.769531 92.003906 182.105469 91.769531 182.441406 L 91.4375 182.960938 C 91.324219 183.128906 91.226562 183.3125 91.125 183.488281 C 90.722656 184.199219 90.378906 184.941406 90.117188 185.707031 C 92.042969 183.109375 94.429688 181.054688 97.089844 179.484375 Z M 259.648438 155.257812 L 259.441406 155.265625 C 252.410156 153.199219 245.382812 151.109375 238.273438 149.414062 C 234.554688 148.503906 230.8125 147.710938 227.050781 147.074219 C 226.113281 146.898438 225.167969 146.769531 224.222656 146.621094 C 223.753906 146.546875 223.28125 146.46875 222.8125 146.402344 L 219.976562 146.035156 C 219.503906 145.972656 219.03125 145.933594 218.558594 145.882812 C 217.609375 145.792969 216.664062 145.675781 215.714844 145.621094 L 214.292969 145.519531 C 213.820312 145.484375 213.347656 145.445312 212.871094 145.433594 C 211.921875 145.398438 210.972656 145.351562 210.023438 145.324219 L 207.1875 145.308594 C 206.242188 145.332031 205.300781 145.375 204.355469 145.40625 C 200.585938 145.617188 196.832031 146.105469 193.136719 146.886719 C 189.441406 147.660156 185.796875 148.695312 182.230469 149.957031 C 178.65625 151.210938 175.15625 152.675781 171.714844 154.285156 C 170.855469 154.6875 169.992188 155.085938 169.140625 155.511719 C 168.292969 155.9375 167.433594 156.34375 166.589844 156.789062 C 165.746094 157.230469 164.894531 157.65625 164.058594 158.105469 L 161.523438 159.460938 C 159.824219 160.363281 158.09375 161.265625 156.285156 162.0625 C 154.484375 162.863281 152.601562 163.558594 150.636719 164.027344 L 149.898438 164.195312 L 149.167969 164.339844 C 148.683594 164.441406 148.195312 164.507812 147.707031 164.59375 C 146.730469 164.738281 145.753906 164.867188 144.78125 164.960938 C 142.835938 165.164062 140.90625 165.265625 138.992188 165.386719 C 137.074219 165.5 135.183594 165.632812 133.308594 165.835938 L 127.601562 166.542969 C 125.699219 166.777344 123.796875 167.015625 121.90625 167.28125 C 120.015625 167.550781 118.128906 167.84375 116.253906 168.175781 C 112.507812 168.851562 108.792969 169.714844 105.226562 170.988281 C 101.660156 172.246094 98.226562 173.949219 95.328125 176.371094 C 93.886719 177.578125 92.601562 178.984375 91.554688 180.5625 C 90.5 182.132812 89.703125 183.878906 89.152344 185.707031 C 89.554688 183.839844 90.246094 182.023438 91.210938 180.347656 C 92.175781 178.675781 93.414062 177.15625 94.832031 175.820312 C 96.246094 174.480469 97.839844 173.339844 99.515625 172.34375 C 101.191406 171.347656 102.953125 170.503906 104.753906 169.769531 C 106.554688 169.035156 108.402344 168.421875 110.265625 167.878906 C 112.132812 167.335938 114.015625 166.875 115.90625 166.460938 C 117.800781 166.042969 119.703125 165.699219 121.605469 165.375 C 123.507812 165.054688 125.417969 164.765625 127.316406 164.480469 L 133.027344 163.613281 C 134.96875 163.351562 136.902344 163.191406 138.820312 163.035156 C 140.738281 162.882812 142.640625 162.734375 144.511719 162.515625 C 145.453125 162.414062 146.378906 162.277344 147.300781 162.128906 C 147.757812 162.042969 148.222656 161.972656 148.671875 161.871094 L 149.355469 161.726562 L 150.019531 161.5625 C 150.902344 161.335938 151.777344 161.066406 152.640625 160.746094 C 153.503906 160.433594 154.363281 160.082031 155.210938 159.695312 C 156.910156 158.929688 158.578125 158.046875 160.253906 157.136719 L 162.789062 155.765625 C 163.640625 155.308594 164.5 154.871094 165.355469 154.421875 C 166.207031 153.96875 167.082031 153.554688 167.945312 153.117188 C 168.808594 152.679688 169.6875 152.273438 170.5625 151.859375 C 174.078125 150.226562 177.667969 148.734375 181.34375 147.460938 C 185.027344 146.199219 188.789062 145.144531 192.621094 144.394531 C 196.453125 143.644531 200.347656 143.179688 204.25 143.046875 C 205.226562 143.03125 206.203125 143.007812 207.179688 143 L 210.105469 143.078125 C 211.074219 143.128906 212.042969 143.203125 213.011719 143.265625 C 213.496094 143.292969 213.980469 143.347656 214.460938 143.394531 L 215.910156 143.539062 C 216.878906 143.621094 217.835938 143.765625 218.796875 143.886719 C 219.277344 143.949219 219.761719 144.003906 220.238281 144.078125 L 221.671875 144.304688 L 223.109375 144.53125 C 223.585938 144.613281 224.058594 144.703125 224.535156 144.789062 C 225.488281 144.964844 226.4375 145.136719 227.382812 145.347656 C 231.164062 146.140625 234.910156 147.074219 238.613281 148.140625 C 245.742188 150.210938 252.730469 152.644531 259.648438 155.257812 Z M 259.648438 155.257812 " fill-opacity="1" fill-rule="nonzero"/></g><g clip-path="url(#id2)"><path fill="rgb(91.369629%, 77.648926%, 36.859131%)" d="M 259.648438 155.921875 L 259.441406 155.929688 L 234.464844 156.90625 L 210.042969 161.710938 L 319.402344 153.59375 Z M 165.699219 169.789062 L 194.621094 164.09375 L 295.210938 160.171875 Z M 129.167969 177.113281 L 158.089844 171.421875 L 258.683594 167.5 Z M 129.167969 177.113281 " fill-opacity="1" fill-rule="nonzero"/></g></svg>